<svg width="61" height="61" viewBox="0 0 61 61" fill="none" xmlns="http://www.w3.org/2000/svg">
<g filter="url(#filter0_d)">
<rect x="-20" y="-17" width="101" height="95" fill="#F1FBFE"/>
</g>
<path fill-rule="evenodd" clip-rule="evenodd" d="M40.6666 5.08325H20.3333C11.911 5.08325 5.08331 11.9109 5.08331 20.3333V40.6666C5.08331 49.0889 11.911 55.9166 20.3333 55.9166H40.6666C49.089 55.9166 55.9166 49.0889 55.9166 40.6666V20.3333C55.9166 11.9109 49.089 5.08325 40.6666 5.08325ZM10.1666 20.3333C10.1666 14.7184 14.7184 10.1666 20.3333 10.1666H40.6666C46.2814 10.1666 50.8333 14.7184 50.8333 20.3333V40.6666C50.8333 46.2814 46.2814 50.8333 40.6666 50.8333H20.3333C14.7184 50.8333 10.1666 46.2814 10.1666 40.6666V20.3333ZM30.5 43.2083C23.4814 43.2083 17.7916 37.5185 17.7916 30.4999C17.7916 23.4813 23.4814 17.7916 30.5 17.7916C37.5185 17.7916 43.2083 23.4813 43.2083 30.4999C43.2083 37.5185 37.5185 43.2083 30.5 43.2083ZM30.5 38.1249C34.7113 38.1249 38.125 34.7112 38.125 30.4999C38.125 26.2886 34.7113 22.8749 30.5 22.8749C26.2887 22.8749 22.875 26.2886 22.875 30.4999C22.875 34.7112 26.2887 38.1249 30.5 38.1249ZM45.75 17.7916C45.75 19.1953 44.6121 20.3333 43.2083 20.3333C41.8046 20.3333 40.6666 19.1953 40.6666 17.7916C40.6666 16.3879 41.8046 15.2499 43.2083 15.2499C44.6121 15.2499 45.75 16.3879 45.75 17.7916Z" fill="#1E2124"/>
<defs>
<filter id="filter0_d" x="-30" y="-47" width="141" height="135" filterUnits="userSpaceOnUse" color-interpolation-filters="sRGB">
<feFlood flood-opacity="0" result="BackgroundImageFix"/>
<feColorMatrix in="SourceAlpha" type="matrix" values="0 0 0 0 0 0 0 0 0 0 0 0 0 0 0 0 0 0 127 0"/>
<feOffset dx="10" dy="-10"/>
<feGaussianBlur stdDeviation="10"/>
<feColorMatrix type="matrix" values="0 0 0 0 0 0 0 0 0 0 0 0 0 0 0 0 0 0 0.01 0"/>
<feBlend mode="normal" in2="BackgroundImageFix" result="effect1_dropShadow"/>
<feBlend mode="normal" in="SourceGraphic" in2="effect1_dropShadow" result="shape"/>
</filter>
</defs>
</svg>
